Coordinates
version=1
nRows=12
nColumns=24
inDegrees=yes

Units are S.I. units (second, meters, Newtons, ...)
Angles are in degrees.

endheader
time	pelvis_tilt	pelvis_list	pelvis_rotation	pelvis_tx	pelvis_ty	pelvis_tz	hip_flexion_r	hip_adduction_r	hip_rotation_r	knee_angle_r	ankle_angle_r	subtalar_angle_r	mtp_angle_r	hip_flexion_l	hip_adduction_l	hip_rotation_l	knee_angle_l	ankle_angle_l	subtalar_angle_l	mtp_angle_l	lumbar_extension	lumbar_bending	lumbar_rotation
      1.59000000	      5.79970500	      8.07175481	     -5.78024078	     -0.65196296	      0.97379652	      0.01018303	     -8.81387069	     -9.29815136	     -7.26453004	    -18.93862422	     17.99435769	      1.77407742	      0.57187517	     14.86693623	      6.80097403	    -21.13223283	     -1.43063785	     -1.74407592	     12.76778368	     38.08413877	    -21.96697220	    -10.23788332	      4.77092704
      1.59500000	      5.91939911	      8.11047905	     -5.81260229	     -0.64645944	      0.97345781	      0.00968661	     -9.33403205	     -9.38108147	     -7.19666668	    -18.86071105	     18.02211130	      1.58147374	      0.59420668	     14.88252071	      6.78421410	    -20.98602954	     -2.36322985	     -1.47590313	     11.94159235	     38.12420873	    -22.07330624	    -10.35877184	      4.73978401
      1.60000000	      6.02105776	      8.18844270	     -5.80143609	     -0.64096755	      0.97309048	      0.00904164	     -9.83435484	     -9.52086290	     -7.30435033	    -18.80594614	     18.03890957	      1.51361617	      0.78217567	     14.92120628	      6.85053296	    -20.70647128	     -3.26722926	     -1.52144247	     10.69672449	     38.24697975	    -22.15597192	    -10.50110799	      4.61489166
      1.60500000	      6.22830058	      8.32404809	     -5.85651080	     -0.63536646	      0.97287698	      0.00838076	    -10.42104299	     -9.77212447	     -7.44881922	    -18.78218470	     18.00698309	      1.60177032	      1.58292969	     14.83058298	      7.01424545	    -20.66110273	     -4.01115345	     -2.20476724	      9.27700497	     39.21649909	    -22.35276735	    -10.71142618	      4.51416439
      1.61000000	      6.25042712	      8.49071729	     -5.86702129	     -0.62980678	      0.97244934	      0.00761090	    -10.77702944	    -10.04716415	     -7.60475030	    -18.83085183	     18.07176935	      1.74260076	      1.78861588	     14.93864139	      7.23134638	    -20.60208469	     -4.59811615	     -3.14674341	      7.70867687	     38.92902475	    -22.33925628	    -10.93203906	      4.41958621
      1.61500000	      6.33744144	      8.74980503	     -5.89013378	     -0.62424470	      0.97219730	      0.00690935	    -11.18692208	    -10.42052273	     -7.75377630	    -18.88924357	     18.10549634	      1.84166377	      2.11402641	     14.96103939	      7.56173175	    -20.58141081	     -5.05451357	     -3.81112416	      6.22837149	     38.53613228	    -22.40770338	    -11.26595664	      4.28742961
      1.62000000	      6.43592483	      9.01682663	     -5.85150026	     -0.61869654	      0.97209189	      0.00620994	    -11.62749947	    -10.77324125	     -7.94158397	    -18.94077790	     18.06234825	      1.84372986	      2.71332184	     14.92337086	      7.90619854	    -20.55228873	     -5.40564921	     -4.03184615	      5.44124167	     38.45795892	    -22.49324248	    -11.59440705	      4.10223050
      1.62500000	      6.43296879	      9.18189420	     -5.84630056	     -0.61340800	      0.97199357	      0.00556105	    -11.90456035	    -10.97150559	     -7.83702745	    -19.01384867	     17.72542670	      1.44020318	      4.03206014	     14.97354743	      8.12079267	    -20.37738689	     -5.72384098	     -4.16626439	      5.04872290	     39.79517768	    -22.50264843	    -11.82651722	      3.99124100
      1.63000000	      6.43772159	      9.36245035	     -5.83868997	     -0.60805798	      0.97195227	      0.00487782	    -12.14811714	    -11.19169417	     -7.77764087	    -19.18599152	     17.53039483	      1.09236687	      4.17006300	     14.94671662	      8.38282583	    -19.98260282	     -5.97004223	     -4.39876178	      4.86952638	     39.89688883	    -22.51545403	    -12.07301207	      3.86654240
      1.63500000	      6.36734453	      9.56169210	     -5.81313724	     -0.60258170	      0.97178623	      0.00415852	    -12.28103846	    -11.45092697	     -7.81577941	    -19.43665827	     17.37221504	      0.93375638	      4.66158501	     14.92013098	      8.68615034	    -19.47322348	     -6.11748533	     -4.93309467	      4.41578085	     40.18973663	    -22.42305307	    -12.33330380	      3.75575583
      1.64000000	      6.30131904	      9.75104978	     -5.74978102	     -0.59732502	      0.97167463	      0.00338270	    -12.33634454	    -11.71043109	     -7.93667572	    -19.82461201	     17.00428727	      0.79784181	      6.30866505	     14.93617084	      8.95923971	    -19.23038990	     -6.39911695	     -5.80851894	      4.12800776	     41.97666322	    -22.36885898	    -12.57238779	      3.56545773
      1.64500000	      6.24824844	      9.94884741	     -5.73236920	     -0.59206362	      0.97164263	      0.00267306	    -12.37579190	    -11.98720591	     -7.94711011	    -20.24278756	     16.85001966	      0.61017079	      6.34584139	     14.92057278	      9.21373168	    -19.13802015	     -6.74865634	     -6.34836719	      4.26716190	     42.01147873	    -22.33788003	    -12.82083413	      3.45334276
